<?xml version="1.0" encoding="UTF-8"?>
<!DOCTYPE svg PUBLIC "-//W3C//DTD SVG 1.1//EN" "http://www.w3.org/Graphics/SVG/1.1/DTD/svg11.dtd">
<!-- Creator: CorelDRAW 2018 (64 Bit Versión de evaluación) -->
<svg xmlns="http://www.w3.org/2000/svg" xml:space="preserve" width="22.25mm" height="22.25mm" version="1.1" style="shape-rendering:geometricPrecision; text-rendering:geometricPrecision; image-rendering:optimizeQuality; fill-rule:evenodd; clip-rule:evenodd"
viewBox="0 0 248.76 248.76"
 xmlns:xlink="http://www.w3.org/1999/xlink">
 <defs>
  <style type="text/css">
   <![CDATA[
    .str0 {stroke:#2B3050;stroke-width:2.8;stroke-miterlimit:22.9256}
    .fil0 {fill:#FEFEFE}
    .fil1 {fill:#2B3050}
    .fil2 {fill:#2B3050;fill-rule:nonzero}
   ]]>
  </style>
 </defs>
 <g id="Layer_x0020_1">
  <metadata id="CorelCorpID_0Corel-Layer"/>
  <path class="fil0 str0" d="M124.38 1.4c67.92,0 122.98,55.06 122.98,122.98 0,67.92 -55.06,122.98 -122.98,122.98 -67.92,0 -122.98,-55.06 -122.98,-122.98 0,-67.92 55.06,-122.98 122.98,-122.98z"/>
  <path class="fil1" d="M124.38 32.21c50.91,0 92.17,41.27 92.17,92.17 0,50.91 -41.27,92.17 -92.17,92.17 -50.9,0 -92.17,-41.27 -92.17,-92.17 0,-50.9 41.27,-92.17 92.17,-92.17z"/>
  <path class="fil2" d="M10.02 145.65l1.62 -0.26c-0,0.22 0.02,0.39 0.05,0.52 0.08,0.31 0.27,0.49 0.57,0.53 0.3,0.04 0.78,-0.03 1.44,-0.21l7.98 -2.14c2.47,-0.66 4.43,-0.57 5.87,0.29 1.44,0.85 2.46,2.42 3.07,4.69 0.64,2.4 0.55,4.32 -0.27,5.75 -0.83,1.43 -2.45,2.47 -4.89,3.12l-7.97 2.14c-0.15,0.04 -0.29,0.08 -0.42,0.11 -0.14,0.04 -0.28,0.07 -0.43,0.11 -0.37,0.1 -0.59,0.25 -0.68,0.46 -0.08,0.2 -0.04,0.62 0.13,1.23l-1.62 0.29 -1.64 -6.13 1.61 -0.31c0.11,0.41 0.32,0.71 0.64,0.91 0.32,0.2 0.78,0.22 1.37,0.06l8.72 -2.33c1.53,-0.41 2.53,-0.96 3,-1.64 0.47,-0.68 0.52,-1.72 0.15,-3.1 -0.35,-1.29 -0.93,-2.14 -1.75,-2.53 -0.82,-0.4 -2.04,-0.38 -3.66,0.06l-8.55 2.29c-0.46,0.12 -0.75,0.32 -0.88,0.59 -0.1,0.44 -0.18,0.83 -0.25,1.17l-1.62 0.26 -1.59 -5.93zm-1.9 -20.88l1.61 -0.02c0.03,0.5 0.2,0.84 0.49,1.04 0.29,0.2 0.79,0.28 1.5,0.23l13.2 -0.92c0.8,-0.06 1.48,-0.19 2.04,-0.4l0.23 3.35 -12.05 8.67 -1.8 1.05 1.5 -0.28c0.4,-0.03 1.58,-0.11 3.54,-0.25 1.96,-0.14 3.87,-0.27 5.74,-0.4 0.76,-0.05 1.29,-0.23 1.57,-0.54 0.29,-0.31 0.41,-0.77 0.36,-1.38l1.61 0 0.43 6.18 -1.61 -0c-0.03,-0.48 -0.2,-0.82 -0.5,-1.01 -0.3,-0.2 -0.82,-0.27 -1.54,-0.22l-12.02 0.84c-0.67,0.05 -1.08,0.13 -1.25,0.26 -0.25,0.21 -0.36,0.65 -0.31,1.32l-1.53 -0.04 -0.37 -5.24c0.43,-0.18 0.7,-0.3 0.81,-0.36 0.11,-0.06 0.4,-0.26 0.88,-0.62l9.29 -6.47c0.48,-0.34 0.93,-0.63 1.38,-0.87 0.45,-0.24 0.89,-0.44 1.34,-0.61 -0.53,0.11 -1.21,0.23 -2.02,0.36 -0.82,0.13 -1.46,0.2 -1.92,0.23l-6.91 0.48c-0.61,0.04 -1.06,0.18 -1.33,0.42 -0.27,0.24 -0.38,0.66 -0.34,1.25l-1.61 -0 -0.42 -6.04zm0.48 -7.95l1.6 0.17c-0.03,0.94 0.5,1.43 1.6,1.46l12.86 0.45c0.32,0.01 0.58,-0.13 0.78,-0.43 0.19,-0.29 0.29,-0.64 0.31,-1.03l1.63 0.14 -0.22 6.31 -1.63 -0.2c0.02,-0.48 -0.12,-0.83 -0.41,-1.06 -0.29,-0.23 -0.77,-0.36 -1.44,-0.38l-11.9 -0.41c-0.67,-0.02 -1.13,0.08 -1.39,0.32 -0.26,0.24 -0.39,0.62 -0.41,1.13l-1.6 -0.17 0.22 -6.31zm2.08 -18.44l1.66 0.32c0.01,0.37 0.1,0.67 0.27,0.91 0.18,0.24 0.52,0.5 1.03,0.78l12.01 6.93c0.2,0.11 0.59,0.28 1.17,0.53 0.58,0.25 1.06,0.45 1.42,0.62l-0.4 2.84 -2.52 0.4c-0.12,0.02 -1.46,0.33 -4.04,0.91 -2.25,0.51 -4.52,1.03 -6.79,1.54 -1.18,0.28 -2.37,0.56 -3.57,0.83 -0.34,0.07 -0.61,0.2 -0.81,0.38 -0.2,0.19 -0.31,0.42 -0.33,0.71l-1.54 -0.39 0.84 -5.97 1.67 0.29c-0.05,0.36 -0.02,0.66 0.08,0.89 0.1,0.24 0.32,0.38 0.64,0.42 0.15,0.02 0.38,0 0.67,-0.05l9.41 -1.83c0.42,-0.08 0.82,-0.13 1.21,-0.16 0.39,-0.03 0.76,-0.02 1.1,0.02 -0.24,-0.07 -0.56,-0.18 -0.96,-0.32 -0.4,-0.14 -0.78,-0.31 -1.16,-0.51l-9.02 -4.88c-0.26,-0.15 -0.51,-0.15 -0.74,0.01 -0.24,0.16 -0.39,0.44 -0.45,0.84l-1.64 -0.49 0.78 -5.57zm18.28 -10.57c0.79,0.37 1.56,0.71 2.32,1.02 0.76,0.32 1.44,0.56 2.04,0.73l-3.66 12.77 -1.5 -0.59c0.11,-0.37 0.07,-0.72 -0.11,-1.02 -0.18,-0.31 -0.58,-0.55 -1.21,-0.73l-11.59 -3.32c-0.62,-0.18 -1.11,-0.15 -1.46,0.09 -0.24,0.17 -0.42,0.43 -0.52,0.78l-1.64 -0.53 3.48 -12.14c0.66,0.19 1.25,0.33 1.76,0.42 0.51,0.09 1.31,0.2 2.38,0.33l-0.57 1.99c-0.46,-0.13 -0.89,-0.1 -1.29,0.11 -0.4,0.2 -0.68,0.59 -0.84,1.16l-0.85 2.95c-0.15,0.52 -0.14,0.91 0.02,1.17 0.16,0.27 0.52,0.48 1.07,0.64l3.48 1 1.89 -6.59 2.47 0.86 -1.85 6.46 4.33 1.24c0.59,0.17 1.03,0.17 1.33,0.01 0.29,-0.16 0.54,-0.57 0.72,-1.21l0.73 -2.54c0.21,-0.75 0.21,-1.35 -0.02,-1.8 -0.23,-0.44 -0.73,-0.86 -1.49,-1.26l0.57 -1.99zm9.56 -13.69l1.46 0.74 -1.72 3.69c-0.43,-0.12 -0.72,-0.18 -0.87,-0.2 -0.15,-0.02 -0.5,-0.01 -1.05,0.03l-6.93 0.25 -0.67 1.43 -0.62 1.33 4.07 1.9c0.55,0.25 1.02,0.31 1.44,0.17 0.42,-0.14 0.7,-0.37 0.85,-0.68l1.43 0.8 -2.61 5.59 -1.43 -0.8c0.13,-0.27 0.18,-0.56 0.15,-0.86 -0.05,-0.4 -0.22,-0.66 -0.51,-0.8l-11.52 -5.37c-0.52,-0.24 -1.01,-0.27 -1.48,-0.09 -0.34,0.14 -0.56,0.33 -0.68,0.57l-1.51 -0.77c0.21,-0.35 0.51,-0.93 0.9,-1.75 0.39,-0.82 0.68,-1.4 0.86,-1.74l1.57 -3.64c0.9,-1.92 2.01,-3.19 3.35,-3.79 1.23,-0.55 2.53,-0.5 3.92,0.15 0.97,0.58 1.74,1.31 2.28,2.17 0.61,0.96 0.85,1.94 0.72,2.93l7.32 -0.42c0.29,-0.03 0.56,-0.14 0.79,-0.31 0.24,-0.17 0.4,-0.36 0.49,-0.55zm-13.23 -0.76c-0.78,-0.36 -1.48,-0.35 -2.09,0.04 -0.61,0.39 -1.13,1.03 -1.54,1.91 -0.42,0.9 -0.63,1.57 -0.64,2.01 -0.01,0.44 0.15,0.77 0.48,0.98l4.24 1.98c0.34,-0.54 0.64,-1.11 0.92,-1.69 0.65,-1.39 0.83,-2.52 0.54,-3.39 -0.26,-0.75 -0.89,-1.37 -1.9,-1.83zm17.43 -11.3c1.44,0.94 2.25,2.13 2.42,3.57 0.17,1.45 -0.33,3.06 -1.49,4.85 -0.68,0.88 -1.35,1.74 -2,2.58 -0.65,0.84 -1.17,1.57 -1.57,2.18 -0.35,-0.23 -0.71,-0.46 -1.07,-0.7 -0.36,-0.24 -0.72,-0.47 -1.07,-0.7 -0.43,-0.28 -0.87,-0.56 -1.3,-0.84 -0.41,-0.17 -0.71,-0.29 -0.89,-0.37l1.25 -1.82c0.8,0.52 1.57,0.68 2.3,0.47 0.73,-0.21 1.44,-0.85 2.14,-1.93 0.6,-0.93 0.84,-1.82 0.7,-2.66 -0.12,-0.69 -0.44,-1.25 -0.96,-1.68 -0.5,-0.32 -1.03,-0.45 -1.6,-0.39 -0.57,0.06 -1.19,0.34 -1.86,0.81l-2.01 1.46c-1.75,1.04 -2.95,1.64 -3.61,1.83 -1.11,0.31 -2.19,0.12 -3.23,-0.56l-0.46 -0.3c-1.14,-0.74 -1.85,-1.77 -2.13,-3.09 -0.33,-1.54 0.02,-3.09 1.04,-4.66 0.38,-0.59 0.83,-1.15 1.32,-1.67 1.14,-1.2 2.01,-2.25 2.6,-3.17 0.61,0.4 1.23,0.79 1.85,1.18 0.62,0.39 1.23,0.75 1.82,1.06l-1.18 1.87c-0.61,-0.4 -1.24,-0.49 -1.9,-0.29 -0.65,0.2 -1.29,0.78 -1.91,1.72l-0.16 0.24c-0.45,0.69 -0.64,1.37 -0.58,2.05 0.06,0.68 0.36,1.19 0.89,1.53 0.53,0.34 1.01,0.52 1.44,0.52 0.43,0.01 0.88,-0.17 1.34,-0.53l3.06 -2.39c2.13,-1.67 4.4,-1.73 6.79,-0.18zm-6.3 -13.53l1.2 1.08c-0.58,0.74 -0.43,1.45 0.43,2.12l10.14 7.92c0.26,0.2 0.55,0.23 0.88,0.11 0.33,-0.13 0.61,-0.34 0.85,-0.65l1.24 1.08 -3.89 4.97 -1.2 -1.12c0.29,-0.38 0.39,-0.74 0.29,-1.1 -0.1,-0.36 -0.41,-0.74 -0.94,-1.15l-9.38 -7.33c-0.53,-0.41 -0.97,-0.6 -1.31,-0.55 -0.35,0.04 -0.68,0.27 -1,0.68l-1.2 -1.08 3.89 -4.98zm19.54 -6.93c2.22,2.38 3.44,4.58 3.65,6.61 0.25,2.26 -0.72,4.4 -2.91,6.44 -0.14,0.13 -0.3,0.27 -0.48,0.41 -0.88,0.69 -1.89,1.57 -3.04,2.64 -0.13,0.12 -0.42,0.43 -0.9,0.95 -0.47,0.52 -0.96,1.01 -1.46,1.48l-1.01 -1.25c0.34,-0.31 0.51,-0.65 0.52,-1.02 0.01,-0.37 -0.19,-0.77 -0.61,-1.22l-8.37 -8.98c-0.33,-0.35 -0.61,-0.56 -0.86,-0.62 -0.4,-0.1 -0.84,0.08 -1.32,0.52l-1.09 -1.34 2.68 -2.38c0.43,-0.4 1.04,-0.99 1.82,-1.75 0.78,-0.77 1.24,-1.21 1.38,-1.34 1.82,-1.7 3.73,-2.51 5.73,-2.44 2.18,0.06 4.26,1.16 6.26,3.3zm-2.33 2.72c-1.58,-1.69 -2.99,-2.67 -4.24,-2.93 -1.25,-0.26 -2.48,0.17 -3.68,1.29 -0.95,0.89 -1.48,1.58 -1.59,2.09 -0.11,0.5 0.16,1.09 0.78,1.76l6.38 6.84c0.59,0.63 1.08,0.91 1.49,0.85 0.41,-0.07 1.07,-0.53 1.98,-1.37 1.25,-1.16 1.78,-2.44 1.6,-3.82 -0.18,-1.39 -1.09,-2.95 -2.72,-4.7zm22.23 -6.8l0.83 1.38 -4.54 3.18 -0.83 -1.38c0.45,-0.32 0.58,-0.63 0.37,-0.92 -0.06,-0.1 -0.17,-0.2 -0.32,-0.3 -0.15,-0.11 -0.25,-0.18 -0.3,-0.21l-2.53 -1.77 -5.15 3.61 0.66 2.97c0.11,0.34 0.22,0.59 0.32,0.73 0.24,0.34 0.62,0.33 1.13,-0.03l0.8 1.4 -4.23 2.96 -0.88 -1.35c0.21,-0.2 0.35,-0.42 0.4,-0.68 0.05,-0.26 0.02,-0.62 -0.09,-1.08l-3.39 -14.55c-0.22,-0.85 -0.46,-1.52 -0.72,-2.02l2.8 -1.96c0.14,0.13 0.29,0.27 0.44,0.41 0.15,0.14 0.33,0.28 0.52,0.42l12.97 9.07c0.4,0.28 0.73,0.41 0.97,0.41 0.24,-0.01 0.49,-0.1 0.74,-0.27zm-9.27 -1.64l-5.13 -3.65 -0.85 -0.81c0.1,0.14 0.19,0.3 0.27,0.48 0.08,0.18 0.15,0.37 0.23,0.58l1.53 6.18 3.95 -2.77zm20.16 -12.12c1.32,2.97 1.76,5.45 1.3,7.43 -0.5,2.21 -2.11,3.93 -4.84,5.14 -0.17,0.08 -0.37,0.16 -0.59,0.23 -1.05,0.36 -2.3,0.86 -3.73,1.5 -0.16,0.07 -0.54,0.27 -1.16,0.61 -0.61,0.34 -1.23,0.65 -1.86,0.93l-0.55 -1.51c0.42,-0.19 0.69,-0.45 0.83,-0.79 0.13,-0.34 0.07,-0.8 -0.18,-1.36l-4.99 -11.21c-0.2,-0.44 -0.4,-0.72 -0.61,-0.87 -0.35,-0.22 -0.82,-0.2 -1.41,0.07l-0.6 -1.62 3.31 -1.38c0.54,-0.24 1.31,-0.6 2.29,-1.07 0.98,-0.47 1.57,-0.74 1.74,-0.82 2.27,-1.01 4.34,-1.16 6.21,-0.44 2.04,0.77 3.65,2.49 4.84,5.16zm-3.09 1.82c-0.94,-2.12 -1.96,-3.5 -3.06,-4.15 -1.1,-0.65 -2.4,-0.65 -3.9,0.02 -1.19,0.53 -1.92,1.02 -2.18,1.46 -0.26,0.44 -0.21,1.08 0.16,1.92l3.81 8.55c0.35,0.79 0.73,1.21 1.14,1.28 0.41,0.07 1.18,-0.15 2.32,-0.66 1.56,-0.69 2.47,-1.72 2.75,-3.09 0.28,-1.37 -0.07,-3.15 -1.04,-5.33zm28.4 -16.95l0.17 1.6c-0.88,0.39 -1.25,1.03 -1.09,1.91l2.21 12.52c0.05,0.3 0.21,0.52 0.47,0.66 0.26,0.14 0.65,0.22 1.15,0.25l0.22 1.59 -6.13 1.08 -0.17 -1.6c0.57,-0.1 0.91,-0.29 1.02,-0.57 0.12,-0.28 0.12,-0.74 0,-1.39l-0.93 -5.26 -7.66 1.35 0.94 5.31c0.11,0.62 0.29,1.04 0.54,1.25 0.25,0.21 0.68,0.26 1.28,0.15l0.17 1.6 -6.16 1.09 -0.17 -1.6c0.34,-0.06 0.61,-0.23 0.83,-0.51 0.21,-0.28 0.27,-0.69 0.17,-1.24l-2.24 -12.72c-0.06,-0.34 -0.25,-0.58 -0.56,-0.73 -0.31,-0.15 -0.65,-0.19 -1.02,-0.13l-0.17 -1.6 6.16 -1.09 0.17 1.6c-0.44,0.25 -0.75,0.5 -0.92,0.74 -0.21,0.33 -0.28,0.76 -0.18,1.28l0.71 4.02 7.66 -1.35 -0.75 -4.27c-0.12,-0.68 -0.52,-1.09 -1.21,-1.24 -0.1,-0.02 -0.26,-0.03 -0.47,-0.03l-0.14 -1.61 6.11 -1.08zm8.27 -0.16l-0 1.61c-0.93,0.07 -1.36,0.65 -1.29,1.74l0.9 12.84c0.02,0.32 0.19,0.57 0.51,0.73 0.31,0.16 0.66,0.23 1.06,0.2l0.03 1.64 -6.3 0.44 0.03 -1.64c0.48,-0.03 0.82,-0.21 1.01,-0.52 0.2,-0.31 0.27,-0.8 0.23,-1.47l-0.83 -11.88c-0.05,-0.67 -0.2,-1.12 -0.47,-1.35 -0.26,-0.23 -0.66,-0.33 -1.17,-0.29l0 -1.61 6.3 -0.44zm14.05 13.76c-0.03,1.72 -0.61,3.04 -1.74,3.94 -1.14,0.91 -2.77,1.34 -4.91,1.31 -1.1,-0.12 -2.19,-0.22 -3.24,-0.33 -1.06,-0.11 -1.95,-0.16 -2.68,-0.18 0.01,-0.42 0.02,-0.85 0.02,-1.28 0.01,-0.43 0.01,-0.86 0.02,-1.28 0.01,-0.52 0.02,-1.03 0.03,-1.55 -0.08,-0.44 -0.13,-0.76 -0.15,-0.95l2.21 0.1c-0.02,0.96 0.26,1.69 0.82,2.2 0.57,0.51 1.49,0.77 2.77,0.79 1.11,0.02 1.98,-0.25 2.63,-0.82 0.52,-0.47 0.83,-1.04 0.92,-1.71 0.01,-0.59 -0.16,-1.11 -0.52,-1.56 -0.36,-0.45 -0.91,-0.83 -1.67,-1.15l-2.31 -0.93c-1.8,-0.93 -2.96,-1.63 -3.47,-2.1 -0.85,-0.78 -1.26,-1.79 -1.24,-3.04l0.01 -0.54c0.02,-1.36 0.52,-2.51 1.49,-3.45 1.13,-1.09 2.63,-1.62 4.5,-1.59 0.71,0.01 1.41,0.09 2.12,0.24 1.62,0.34 2.97,0.51 4.07,0.53 -0.01,0.73 -0.02,1.46 -0.02,2.2 -0,0.74 0.02,1.44 0.06,2.11l-2.21 -0.01c0.01,-0.73 -0.24,-1.32 -0.76,-1.76 -0.52,-0.45 -1.34,-0.68 -2.47,-0.7l-0.29 -0.01c-0.82,-0.01 -1.5,0.19 -2.05,0.6 -0.54,0.41 -0.82,0.93 -0.83,1.56 -0.01,0.63 0.1,1.13 0.32,1.5 0.22,0.37 0.61,0.65 1.16,0.85l3.65 1.33c2.55,0.92 3.8,2.81 3.75,5.66zm16.59 -6.18c-0.4,2.28 -1.32,3.77 -2.77,4.47 -1.32,0.64 -3.32,0.73 -6.02,0.25l-1.69 -0.3 -0.83 4.86c-0.06,0.36 0,0.66 0.19,0.91 0.19,0.25 0.52,0.41 0.99,0.5l-0.36 1.57 -6.19 -1.09 0.42 -1.56c0.41,0.07 0.74,0.03 0.98,-0.12 0.35,-0.21 0.58,-0.65 0.7,-1.3l2.1 -11.9c0.13,-0.72 0.11,-1.21 -0.04,-1.48 -0.16,-0.27 -0.49,-0.45 -1,-0.54l0.42 -1.53 3 0.53c0.43,0.08 1.26,0.2 2.47,0.38 1.21,0.18 2.03,0.3 2.47,0.38 2.15,0.38 3.64,1.09 4.46,2.13 0.76,0.97 1,2.26 0.72,3.86zm-3.58 -0.52c0.15,-0.87 0.03,-1.55 -0.38,-2.05 -0.41,-0.5 -1.06,-0.83 -1.96,-0.99l-1.66 -0.29c-0.56,-0.1 -0.96,-0.02 -1.19,0.24 -0.23,0.26 -0.4,0.68 -0.5,1.27l-0.73 4.13 1.62 0.32c1.65,0.29 2.86,0.14 3.64,-0.44 0.58,-0.44 0.96,-1.17 1.14,-2.19zm17.02 17.8l-0.61 1.49 -5.27 -1.71 0.61 -1.49c0.53,0.17 0.85,0.08 0.96,-0.26 0.03,-0.11 0.05,-0.25 0.05,-0.44 -0.01,-0.18 -0.01,-0.3 -0.01,-0.36l-0.11 -3.08 -5.98 -1.94 -1.97 2.32c-0.21,0.3 -0.34,0.53 -0.39,0.69 -0.13,0.39 0.11,0.69 0.71,0.89l-0.63 1.48 -4.91 -1.6 0.55 -1.51c0.28,0.05 0.55,0.02 0.78,-0.09 0.24,-0.11 0.51,-0.35 0.81,-0.72l9.58 -11.46c0.55,-0.69 0.94,-1.28 1.19,-1.79l3.25 1.05c-0.02,0.19 -0.04,0.39 -0.06,0.6 -0.02,0.21 -0.02,0.43 -0.02,0.67l0.56 15.81c0.02,0.49 0.11,0.83 0.26,1.02 0.15,0.19 0.37,0.33 0.66,0.43zm-4.26 -8.39l-0.17 -6.3 0.13 -1.16c-0.05,0.16 -0.13,0.33 -0.22,0.5 -0.1,0.17 -0.2,0.35 -0.32,0.53l-4.01 4.94 4.59 1.49zm26.7 0.74l-0.78 1.41c-0.45,-0.22 -0.83,-0.25 -1.15,-0.1 -0.32,0.15 -0.64,0.55 -0.95,1.18l-5.8 11.89c-0.35,0.72 -0.58,1.38 -0.67,1.97l-3.02 -1.47 -1.48 -14.77 -0.01 -2.08 -0.51 1.44c-0.17,0.36 -0.69,1.42 -1.55,3.19 -0.86,1.76 -1.7,3.49 -2.52,5.17 -0.34,0.69 -0.44,1.24 -0.32,1.63 0.13,0.4 0.46,0.74 1.01,1l-0.81 1.39 -5.57 -2.72 0.81 -1.39c0.43,0.21 0.81,0.23 1.13,0.07 0.32,-0.16 0.65,-0.57 0.96,-1.22l5.28 -10.83c0.29,-0.6 0.43,-1 0.4,-1.21 -0.06,-0.32 -0.38,-0.63 -0.98,-0.93l0.79 -1.3 4.72 2.3c-0.06,0.46 -0.09,0.76 -0.09,0.88 -0.01,0.13 0.02,0.48 0.1,1.07l0.95 11.29c0.05,0.58 0.08,1.12 0.06,1.63 -0.02,0.51 -0.07,1 -0.15,1.47 0.17,-0.52 0.4,-1.16 0.7,-1.93 0.3,-0.77 0.55,-1.36 0.75,-1.78l3.04 -6.23c0.27,-0.55 0.37,-1.01 0.3,-1.36 -0.07,-0.35 -0.38,-0.66 -0.91,-0.92l0.81 -1.39 5.44 2.65zm10.48 20.21c-3.93,5.21 -8.06,6.18 -12.4,2.91 -2.13,-1.6 -3.31,-3.38 -3.56,-5.34 -0.28,-2.24 0.64,-4.75 2.73,-7.54 2.04,-2.7 4.2,-4.22 6.49,-4.56 2.02,-0.3 4.06,0.33 6.13,1.88 4.31,3.25 4.51,7.46 0.61,12.64zm-2.88 -2.28c2.75,-3.65 2.9,-6.4 0.44,-8.26 -1.27,-0.96 -2.57,-1.17 -3.9,-0.64 -1.33,0.53 -2.66,1.67 -3.99,3.43 -1.53,2.03 -2.33,3.7 -2.39,5.01 -0.06,1.31 0.55,2.44 1.83,3.41 2.46,1.85 5.13,0.87 8.01,-2.95zm10.22 9.89c-0.41,0.16 -0.87,0.43 -1.38,0.84 -0.51,0.4 -0.85,0.66 -1,0.78l-5.72 -5.93c0.89,-0.38 1.69,-0.91 2.4,-1.6l5.7 5.9zm10.4 14.65l-1.47 0.96c-0.22,-0.36 -0.51,-0.56 -0.88,-0.6 -0.37,-0.04 -0.84,0.15 -1.42,0.57l-4.39 3.19 -0.95 -1.22 -1.5 -1.67 -1.28 -1.62c-1.65,-2.27 -2.33,-4.51 -2.05,-6.72 0.3,-2.29 1.58,-4.27 3.86,-5.92 2.35,-1.71 4.62,-2.59 6.81,-2.64 2.83,-0.07 5.27,1.29 7.3,4.1 0.33,0.66 0.71,1.34 1.12,2.06 0.41,0.72 0.96,1.54 1.63,2.47 -0.57,0.42 -1.14,0.89 -1.69,1.43 -0.56,0.54 -1.1,1.07 -1.64,1.6l-1.4 -1.78c0.51,-0.54 0.76,-1.15 0.75,-1.84 -0.01,-0.69 -0.35,-1.51 -1.04,-2.46 -1,-1.38 -2.24,-2.12 -3.72,-2.23 -1.6,-0.12 -3.36,0.53 -5.3,1.94 -1.76,1.28 -2.9,2.55 -3.4,3.82 -0.65,1.61 -0.35,3.28 0.91,5.01 0.62,0.85 1.18,1.3 1.68,1.33 0.5,0.04 1.2,-0.27 2.1,-0.92 0.87,-0.63 1.34,-1.07 1.42,-1.32 0.13,-0.35 -0.09,-0.9 -0.64,-1.66l1.5 -0.91 3.68 5.06zm17.01 11.95l-1.54 0.59c-0.04,-0.21 -0.1,-0.38 -0.16,-0.5 -0.15,-0.29 -0.37,-0.42 -0.67,-0.4 -0.3,0.02 -0.76,0.19 -1.37,0.5l-7.36 3.75c-2.29,1.16 -4.22,1.48 -5.8,0.94 -1.58,-0.54 -2.91,-1.85 -3.98,-3.95 -1.13,-2.22 -1.44,-4.11 -0.93,-5.68 0.51,-1.57 1.88,-2.92 4.13,-4.07l7.35 -3.75c0.14,-0.07 0.27,-0.14 0.39,-0.2 0.13,-0.07 0.26,-0.13 0.4,-0.2 0.34,-0.17 0.53,-0.37 0.57,-0.59 0.04,-0.22 -0.09,-0.61 -0.38,-1.18l1.52 -0.61 2.88 5.65 -1.51 0.64c-0.19,-0.37 -0.46,-0.63 -0.82,-0.76 -0.36,-0.13 -0.81,-0.06 -1.35,0.22l-8.04 4.1c-1.41,0.72 -2.28,1.46 -2.59,2.22 -0.32,0.76 -0.15,1.79 0.5,3.06 0.61,1.19 1.35,1.9 2.24,2.11 0.88,0.22 2.07,-0.06 3.57,-0.82l7.89 -4.02c0.42,-0.22 0.67,-0.47 0.74,-0.76 0.01,-0.45 0.01,-0.85 0,-1.19l1.54 -0.59 2.79 5.47zm-10.75 24.05l-1.58 0.33 -1.53 -5.32 1.58 -0.33c0.15,0.53 0.4,0.75 0.75,0.65 0.11,-0.03 0.24,-0.1 0.39,-0.2 0.15,-0.11 0.25,-0.18 0.3,-0.21l2.49 -1.82 -1.73 -6.04 -3.03 -0.34c-0.36,-0.01 -0.62,0.01 -0.79,0.06 -0.4,0.12 -0.52,0.48 -0.34,1.08l-1.58 0.3 -1.42 -4.97 1.56 -0.39c0.12,0.26 0.29,0.46 0.52,0.6 0.23,0.13 0.58,0.22 1.05,0.27l14.86 1.53c0.88,0.07 1.59,0.06 2.15,-0.02l0.94 3.28c-0.17,0.09 -0.35,0.19 -0.53,0.29 -0.18,0.1 -0.37,0.22 -0.57,0.36l-12.79 9.31c-0.39,0.29 -0.63,0.55 -0.7,0.78 -0.07,0.23 -0.07,0.49 0.01,0.79zm4.57 -8.23l5.13 -3.66 1.04 -0.54c-0.17,0.05 -0.35,0.08 -0.54,0.1 -0.2,0.02 -0.4,0.03 -0.62,0.03l-6.34 -0.57 1.33 4.64zm-2.35 23l-1.63 0.17 -0.57 -4.03c0.42,-0.14 0.7,-0.24 0.84,-0.31 0.14,-0.07 0.42,-0.27 0.86,-0.6l5.67 -3.99 -0.22 -1.56 -0.2 -1.45 -4.44 0.62c-0.6,0.08 -1.03,0.3 -1.3,0.65 -0.27,0.35 -0.39,0.69 -0.34,1.03l-1.64 0.11 -0.86 -6.11 1.64 -0.11c0.04,0.29 0.15,0.56 0.34,0.8 0.26,0.31 0.54,0.43 0.87,0.39l12.59 -1.77c0.57,-0.08 1,-0.32 1.29,-0.73 0.21,-0.3 0.29,-0.58 0.26,-0.85l1.68 -0.18c0.02,0.4 0.08,1.06 0.2,1.96 0.12,0.9 0.19,1.54 0.23,1.92l0.66 3.91c0.3,2.1 0.05,3.77 -0.75,5 -0.73,1.13 -1.85,1.8 -3.37,2.01 -1.13,0.04 -2.17,-0.15 -3.09,-0.58 -1.03,-0.47 -1.77,-1.16 -2.2,-2.07l-5.91 4.34c-0.22,0.19 -0.39,0.42 -0.5,0.69 -0.11,0.28 -0.14,0.52 -0.12,0.73zm11.51 -6.57c0.85,-0.12 1.43,-0.51 1.73,-1.17 0.3,-0.66 0.39,-1.47 0.25,-2.44 -0.14,-0.98 -0.33,-1.66 -0.56,-2.04 -0.23,-0.37 -0.55,-0.56 -0.93,-0.56l-4.63 0.65c0.01,0.64 0.06,1.28 0.15,1.92 0.21,1.51 0.68,2.56 1.4,3.14 0.63,0.49 1.49,0.66 2.59,0.5zm-12.1 23.09l-1.61 -0.14 0.1 -5.54 1.61 0.14c-0.01,0.56 0.17,0.84 0.53,0.84 0.12,0 0.26,-0.02 0.43,-0.08 0.17,-0.06 0.29,-0.1 0.35,-0.11l2.92 -1.01 0.11 -6.28 -2.8 -1.21c-0.34,-0.11 -0.6,-0.17 -0.77,-0.17 -0.42,-0.01 -0.63,0.31 -0.64,0.94l-1.6 -0.17 0.09 -5.17 1.61 0.09c0.03,0.29 0.14,0.53 0.32,0.72 0.18,0.19 0.49,0.38 0.92,0.56l13.76 5.81c0.82,0.32 1.5,0.52 2.05,0.61l-0.06 3.42c-0.19,0.03 -0.39,0.07 -0.59,0.12 -0.2,0.04 -0.42,0.1 -0.65,0.17l-14.96 5.16c-0.46,0.16 -0.76,0.35 -0.9,0.54 -0.14,0.2 -0.21,0.45 -0.21,0.76zm6.78 -6.53l5.97 -2 1.15 -0.21c-0.17,-0 -0.35,-0.03 -0.54,-0.07 -0.19,-0.04 -0.39,-0.09 -0.6,-0.15l-5.9 -2.39 -0.08 4.83zm7.1 26.19l-1.57 -0.36c0.09,-0.49 0.01,-0.87 -0.22,-1.13 -0.24,-0.26 -0.7,-0.46 -1.4,-0.58l-13.03 -2.3c-0.79,-0.14 -1.49,-0.18 -2.08,-0.11l0.58 -3.31 13.79 -5.49 2 -0.58 -1.53 -0.1c-0.39,-0.07 -1.56,-0.28 -3.49,-0.62 -1.93,-0.34 -3.82,-0.67 -5.67,-1 -0.75,-0.13 -1.31,-0.09 -1.66,0.15 -0.35,0.23 -0.58,0.65 -0.69,1.25l-1.56 -0.39 1.08 -6.1 1.56 0.39c-0.08,0.47 -0,0.84 0.24,1.11 0.24,0.27 0.72,0.46 1.44,0.59l11.87 2.09c0.66,0.12 1.08,0.13 1.27,0.05 0.3,-0.14 0.5,-0.54 0.62,-1.2l1.47 0.41 -0.91 5.17c-0.46,0.07 -0.75,0.12 -0.87,0.15 -0.12,0.03 -0.45,0.16 -1,0.39l-10.58 4.03c-0.54,0.21 -1.06,0.38 -1.55,0.51 -0.49,0.12 -0.97,0.21 -1.45,0.26 0.54,0.02 1.23,0.07 2.05,0.14 0.82,0.08 1.46,0.16 1.92,0.23l6.83 1.2c0.6,0.11 1.07,0.08 1.39,-0.09 0.32,-0.17 0.53,-0.54 0.64,-1.13l1.56 0.39 -1.05 5.96zm-2.91 8.13l-1.49 -0.6c0.29,-0.89 -0.09,-1.51 -1.13,-1.85l-12.24 -3.98c-0.31,-0.1 -0.6,-0.03 -0.87,0.2 -0.26,0.23 -0.46,0.53 -0.58,0.9l-1.53 -0.59 1.95 -6 1.51 0.64c-0.15,0.45 -0.11,0.83 0.1,1.13 0.21,0.3 0.64,0.55 1.28,0.76l11.33 3.68c0.64,0.21 1.11,0.23 1.43,0.07 0.31,-0.16 0.55,-0.49 0.71,-0.98l1.49 0.61 -1.95 6zm4.41 3.42l-2.64 -5.81 0.76 -2.35 3.26 3.89 -1.38 4.26z"/>
  <path class="fil1" d="M221.69 162.31c2.76,0 5,2.24 5,5 0,2.76 -2.24,5 -5,5 -2.76,0 -5,-2.24 -5,-5 0,-2.76 2.24,-5 5,-5z"/>
  <path class="fil1" d="M27.07 162.31c2.76,0 5,2.24 5,5 0,2.76 -2.23,5 -5,5 -2.76,0 -5,-2.24 -5,-5 0,-2.76 2.24,-5 5,-5z"/>
  <path class="fil2" d="M67.69 222.12l-0.08 0.08 -1.88 2.03c-0.37,-0.24 -0.82,-0.52 -1.35,-0.86 -0.52,-0.33 -1.27,-0.81 -2.25,-1.43 -0.97,-0.62 -1.93,-1.23 -2.85,-1.82l-2.07 -1.29 -0.08 -0.07 0.31 0.12c0.43,0.17 1,-0.29 1.7,-1.4l5.45 -8.56c0.75,-1.17 0.99,-1.84 0.74,-2l-0.16 -0.1 0.1 -0.04 1.74 1.13 1.91 1.19 0.08 0.07 -0.24 -0.07c-0.35,-0.11 -0.88,0.38 -1.57,1.47l-4.88 7.67c-0.39,0.62 -0.56,1.08 -0.49,1.37 0.05,0.22 0.31,0.47 0.78,0.77l0.74 0.47c0.9,0.57 1.72,0.96 2.45,1.15 0.73,0.2 1.31,0.2 1.73,0.01 0.06,0.02 0.11,0.05 0.16,0.1zm10.46 5.44l-1.76 2.28 -7.63 -3.94 -2.18 -1.1 -0.08 -0.07 0.3 0.08c0.47,0.12 1,-0.39 1.59,-1.53l4.66 -9.02c0.64,-1.24 0.81,-1.93 0.52,-2.08l-0.15 -0.08 0.1 -0.05 1.9 0.98 7.06 3.65 -0.82 2.57c-0.03,0.02 -0.07,0.02 -0.12,0.01 -0.02,0.01 -0.03,-0.06 -0.05,-0.19 -0.03,-0.43 -0.24,-0.86 -0.61,-1.28 -0.37,-0.42 -0.97,-0.84 -1.79,-1.26l-2.95 -1.52 -2.2 4.26 2.02 1.04c1.1,0.57 1.9,0.87 2.38,0.89 0.27,-0.12 0.55,-0.24 0.84,-0.36l-1.49 3.07c0.07,-0.25 -0.06,-0.58 -0.39,-0.97 -0.33,-0.39 -0.99,-0.85 -2,-1.37l-2.02 -1.04 -1.74 3.37c-0.34,0.66 -0.46,1.12 -0.37,1.41 0.06,0.22 0.35,0.45 0.84,0.7l1.66 0.86c0.96,0.5 1.79,0.8 2.46,0.9 0.68,0.1 1.26,0.04 1.75,-0.19l0.15 -0.07 0.12 0.06zm16.52 -5.82c-0.77,0.3 -1.23,0.47 -1.35,0.51 -0.69,0.27 -1.12,0.48 -1.28,0.63l-5.48 4.98 -1.31 3.36c-0.51,1.29 -0.57,2.01 -0.2,2.16l0.22 0.09 -0.09 0.06 -2.15 -0.86 -2.16 -0.82 -0.09 -0.06 0.26 0.03c0.21,0.02 0.42,-0.11 0.64,-0.38 0.22,-0.27 0.45,-0.72 0.69,-1.33l1.27 -3.26 -0.72 -7.94c-0.04,-0.38 -0.14,-0.77 -0.33,-1.16 -0.11,-0.26 -0.28,-0.54 -0.5,-0.84l0.11 -0.1 2.38 0.93 2.27 0.88 0.07 0.1c-0.36,-0.02 -0.59,0.09 -0.68,0.33 -0.06,0.15 -0.07,0.33 -0.04,0.55 0.03,0.22 0.11,0.51 0.23,0.88l-0.13 5.21 3.39 -3.85c0.21,-0.12 0.46,-0.31 0.75,-0.58 0.09,-0.08 0.22,-0.22 0.39,-0.4 0.09,-0.23 -0,-0.45 -0.27,-0.66l0.11 -0.1 2.01 0.78 1.93 0.75 0.07 0.1zm17.97 3.55l-0.33 0.01c-0.47,0.01 -0.81,0.65 -1.04,1.94l-2.11 12.1c-0.53,0.07 -1.03,0.06 -1.5,-0.02 -0.21,-0.04 -0.46,-0.1 -0.75,-0.2 -0.29,-0.09 -0.6,-0.21 -0.94,-0.34l-0.96 -1.85 -2.53 -11.13 -1.73 9.87c-0.11,0.65 -0.14,1.16 -0.07,1.55 0.06,0.38 0.19,0.59 0.37,0.62l0.25 0.04 -0.08 0.07 -1.92 -0.34 -2.05 -0.36 -0.11 -0.02 0.35 -0.02c0.51,-0.01 0.88,-0.66 1.1,-1.93l1.83 -10.49c0.06,-0.35 0.06,-0.7 0,-1.06 -0.06,-0.35 -0.18,-0.54 -0.35,-0.57l-0.21 -0.04 0.08 -0.07 2.84 0.52 1.97 0.32 0.06 0.03 2.77 11.64 1.52 -8.71c0.11,-0.63 0.13,-1.15 0.06,-1.54 -0.07,-0.39 -0.21,-0.61 -0.42,-0.64l-0.3 -0.05 0.08 -0.07 2.02 0.38 1.97 0.32 0.1 0.04zm3.98 3.79c-0.04,0.62 -0.3,1.13 -0.77,1.53 -0.47,0.4 -1.01,0.58 -1.62,0.54 -0.61,-0.05 -1.12,-0.3 -1.52,-0.77 -0.4,-0.47 -0.58,-1.01 -0.53,-1.63 0.05,-0.61 0.31,-1.13 0.77,-1.53 0.47,-0.4 1.01,-0.58 1.62,-0.53 0.61,0.05 1.12,0.3 1.52,0.77 0.4,0.47 0.58,1.01 0.53,1.63zm-1.26 -0.1c0.02,-0.27 -0.05,-0.51 -0.23,-0.71 -0.17,-0.2 -0.39,-0.31 -0.66,-0.33 -0.27,-0.02 -0.51,0.05 -0.7,0.23 -0.2,0.17 -0.31,0.39 -0.33,0.67 -0.02,0.27 0.05,0.51 0.22,0.71 0.17,0.2 0.39,0.31 0.66,0.33 0.27,0.02 0.51,-0.05 0.7,-0.23 0.2,-0.17 0.31,-0.4 0.33,-0.67zm19.5 7.41c0.03,1.27 -0.45,2.28 -1.42,3.04 -0.98,0.76 -2.3,1.15 -3.97,1.19 -1.4,0.03 -2.52,-0.2 -3.37,-0.68 -0.85,-0.49 -1.36,-1.14 -1.55,-1.97l0.38 -1.22c0.37,-0.09 0.72,-0.14 1.05,-0.15 0.24,-0.01 0.42,-0 0.55,0.01 0.12,0.01 0.29,0.06 0.51,0.14 0.15,0.88 0.42,1.54 0.82,1.99 0.4,0.45 0.94,0.67 1.61,0.65 0.67,-0.01 1.21,-0.3 1.61,-0.85 0.4,-0.55 0.59,-1.27 0.58,-2.16 -0.02,-0.83 -0.26,-1.52 -0.74,-2.07 -0.48,-0.55 -1.07,-0.82 -1.79,-0.81 -0.1,0 -0.18,0 -0.24,0.01l-1.34 0.16 -0.03 -1.48 1.22 0.1c0.1,-0 0.18,-0 0.24,-0 0.67,-0.02 1.23,-0.26 1.66,-0.74 0.44,-0.47 0.65,-1.11 0.64,-1.9 -0.02,-0.82 -0.18,-1.44 -0.5,-1.86 -0.31,-0.43 -0.8,-0.63 -1.44,-0.61 -0.57,0.01 -1.03,0.22 -1.39,0.62 -0.35,0.4 -0.64,1 -0.85,1.79 -0.46,0.08 -0.84,0.13 -1.15,0.13 -0.1,0 -0.21,0 -0.33,-0 -0.12,-0 -0.29,-0.03 -0.51,-0.06l-0.3 -1.11c0.15,-0.8 0.62,-1.43 1.41,-1.87 0.78,-0.44 1.88,-0.68 3.29,-0.71 1.57,-0.03 2.78,0.24 3.63,0.84 0.85,0.59 1.28,1.49 1.31,2.69 0.02,0.86 -0.25,1.57 -0.82,2.14 -0.57,0.56 -1.44,0.97 -2.62,1.21 1.23,0.2 2.18,0.59 2.84,1.17 0.66,0.58 1,1.38 1.03,2.39zm10.36 -3.59l-0.14 2.54 -2.21 0.29 0.14 1.09c0.09,0.67 0.22,1.17 0.38,1.51 0.17,0.33 0.34,0.49 0.53,0.46l0.26 -0.03 0.09 0.07 -0.08 0.05 -4.65 0.61 0.06 -0.14 0.25 -0.03c0.18,-0.02 0.3,-0.2 0.36,-0.55 0.06,-0.34 0.05,-0.87 -0.05,-1.58l-0.14 -1.09 -4.86 0.64 -0.19 -1.44c-0.06,-0.44 0.2,-1.33 0.75,-2.67 0.26,-0.64 0.86,-1.93 1.81,-3.89 0.82,-1.69 1.35,-2.88 1.61,-3.58l2.32 -0.3 1.22 9.33 0.47 -0.06c0.55,-0.07 1,-0.22 1.33,-0.44 0.33,-0.22 0.55,-0.49 0.67,-0.81l0.09 0.03zm-5.4 1.66l-0.87 -6.69c-0.12,0.61 -0.31,1.34 -0.56,2.21 -0.25,0.87 -0.51,1.72 -0.76,2.56 -0.33,1.12 -0.54,1.88 -0.63,2.29l2.83 -0.37zm16 -2.22c0.3,1.3 0.05,2.42 -0.76,3.37 -0.81,0.95 -2.06,1.62 -3.76,2.01 -1.52,0.35 -2.8,0.29 -3.83,-0.19 -1.04,-0.47 -1.69,-1.29 -1.96,-2.47 -0.23,-0.98 -0.1,-1.84 0.38,-2.59 0.48,-0.75 1.25,-1.34 2.3,-1.78 -1.02,-0.03 -1.84,-0.28 -2.48,-0.75 -0.64,-0.47 -1.04,-1.08 -1.22,-1.85 -0.28,-1.2 -0.07,-2.2 0.61,-3.01 0.68,-0.81 1.79,-1.39 3.32,-1.75 1.42,-0.33 2.59,-0.29 3.5,0.12 0.91,0.41 1.5,1.15 1.75,2.23 0.18,0.79 0.05,1.52 -0.39,2.19 -0.44,0.67 -1.15,1.21 -2.14,1.63 2.67,-0.03 4.23,0.91 4.68,2.82zm-4.86 -5.92c-0.34,-1.49 -1.13,-2.09 -2.37,-1.8 -0.63,0.15 -1.06,0.44 -1.31,0.9 -0.25,0.45 -0.29,1.02 -0.14,1.7 0.16,0.68 0.51,1.21 1.05,1.59 0.54,0.38 1.12,0.5 1.73,0.36 0.46,-0.11 0.79,-0.42 0.98,-0.94 0.2,-0.52 0.21,-1.12 0.06,-1.8zm2 6.85c-0.19,-0.81 -0.69,-1.41 -1.49,-1.8 -0.68,-0.33 -1.43,-0.47 -2.27,-0.42 -0.4,0.15 -0.69,0.52 -0.86,1.11 -0.17,0.59 -0.18,1.24 -0.01,1.96 0.19,0.84 0.55,1.48 1.08,1.91 0.53,0.44 1.12,0.58 1.79,0.42 0.75,-0.17 1.28,-0.54 1.6,-1.1 0.31,-0.56 0.37,-1.26 0.18,-2.09zm10.17 -12.7c0.22,0.66 0.21,1.83 -0.03,3.51 -0.39,2.75 -0.61,4.35 -0.64,4.8 -0.14,2.02 0.02,3.72 0.48,5.1l-3.68 1.22c-0.42,-1.26 -0.47,-2.87 -0.16,-4.82 0.12,-0.81 0.49,-2.39 1.08,-4.74 0.42,-1.68 0.55,-2.75 0.4,-3.22l-4.98 1.66c-0.42,0.14 -0.73,0.33 -0.94,0.56 -0.16,0.25 -0.32,0.5 -0.47,0.74l-0.09 -0.08 -0.37 -2.88 9.02 -3 0.39 1.16zm4.01 -4.36l2.01 15.85 -1.76 0.79 -2.01 -15.85 1.76 -0.79zm11.95 2.73c1.07,2.07 1.57,3.83 1.48,5.27 -0.1,1.52 -0.82,2.62 -2.16,3.32 -1.33,0.69 -2.63,0.65 -3.91,-0.14 -1.27,-0.78 -2.45,-2.2 -3.51,-4.25 -1.08,-2.08 -1.58,-3.86 -1.49,-5.34 0.08,-1.48 0.8,-2.57 2.16,-3.28 1.33,-0.69 2.63,-0.65 3.91,0.14 1.27,0.78 2.45,2.2 3.52,4.27zm-2.87 1.49c-1.83,-3.53 -3.14,-5.09 -3.93,-4.68 -0.79,0.41 -0.26,2.38 1.57,5.91 1.83,3.52 3.13,5.07 3.92,4.66 0.78,-0.41 0.26,-2.37 -1.56,-5.89zm14 -4.93c0.72,1.12 0.86,2.26 0.42,3.43 -0.44,1.17 -1.39,2.22 -2.85,3.17 -1.31,0.84 -2.53,1.22 -3.67,1.12 -1.14,-0.09 -2.03,-0.65 -2.68,-1.66 -0.54,-0.84 -0.72,-1.7 -0.52,-2.57 0.2,-0.87 0.72,-1.69 1.57,-2.45 -0.97,0.32 -1.83,0.36 -2.59,0.14 -0.76,-0.23 -1.35,-0.67 -1.77,-1.33 -0.67,-1.03 -0.81,-2.05 -0.44,-3.04 0.37,-0.99 1.22,-1.92 2.54,-2.77 1.23,-0.79 2.34,-1.15 3.33,-1.08 1,0.07 1.8,0.58 2.4,1.51 0.44,0.68 0.57,1.41 0.38,2.19 -0.19,0.77 -0.68,1.53 -1.46,2.26 2.51,-0.93 4.29,-0.58 5.35,1.08zm-6.58 -3.93c-0.83,-1.28 -1.77,-1.58 -2.84,-0.9 -0.54,0.35 -0.85,0.78 -0.93,1.29 -0.08,0.51 0.07,1.06 0.45,1.65 0.38,0.59 0.89,0.97 1.53,1.14 0.64,0.17 1.22,0.09 1.75,-0.25 0.4,-0.25 0.6,-0.66 0.6,-1.22 0.01,-0.56 -0.18,-1.13 -0.56,-1.72zm4.2 5.77c-0.45,-0.7 -1.12,-1.09 -2.01,-1.19 -0.75,-0.08 -1.51,0.04 -2.28,0.37 -0.33,0.28 -0.48,0.73 -0.44,1.34 0.04,0.61 0.25,1.23 0.65,1.84 0.47,0.72 1.02,1.2 1.66,1.43 0.64,0.23 1.25,0.17 1.83,-0.21 0.65,-0.42 1.03,-0.94 1.13,-1.57 0.1,-0.63 -0.08,-1.31 -0.54,-2.03z"/>
  <path class="fil0" d="M92.8 56.59l0 113.47c-6.37,-3.37 -13.25,-11.87 -16.76,-18.2 -13.22,-23.85 -4.45,-39.73 -4.07,-47.41l-0.02 -35.59c-0.18,-0.18 0.15,-1.02 -1.98,0.99 -0.9,0.85 -1.7,1.72 -2.4,2.6 -1.54,1.94 -2.85,3.19 -4.22,4.99 -8.36,10.97 -15.93,26.84 -15.93,41.11 0,14.53 0.28,25.17 7.15,38.85 3.87,7.69 4.81,9.02 10.01,15.75 1.4,1.8 2.8,3.1 4.34,4.86l2.17 2.12c1.03,0.9 1.29,1.19 2.23,2.06 8.58,7.96 23.22,15.37 34.44,17.69 2.41,0.5 6.49,2.19 6.49,-0.98l0 -63.79 20.24 0 0 65.63c3.86,0 11.18,-2.2 14.37,-3.41 12.43,-4.72 24.03,-11.03 32.67,-21.3 12.61,-15 19.8,-29.63 19.8,-55.02 0,-3.41 -0.61,-3.64 -0.61,-6.75l-34.95 0c-1.41,0 -1.84,0.43 -1.84,1.84l0 19.01 14.72 0c-0.46,5.57 -5.82,16.29 -8.38,20.44 -3.62,5.86 -8.62,10.71 -14.31,14.52l0 -90.16c3.58,0.3 9.12,6.57 11.14,9.1 3.21,4.01 5.5,8.49 7.87,12.98 3.1,-0.26 15.63,-9.8 18.4,-11.65 -0.47,-1.76 -3.29,-6.11 -4.41,-7.86 -3.02,-4.73 -7.4,-9.77 -11.38,-13.76 -9.69,-9.73 -30.21,-20.41 -43.08,-20.7l0 66.24 -20.24 0 0 -64.4c0,-2.93 -3.06,-1.63 -5.36,-1.09 -2.1,0.49 -4.58,1.11 -6.84,1.77 -2.19,0.64 -3.68,1.15 -6,1.98 -5.33,1.91 -3.27,2.69 -3.27,4.09z"/>
 </g>
</svg>
